<svg width="25" height="25" viewBox="0 0 25 25" fill="none" xmlns="http://www.w3.org/2000/svg">
<path fill-rule="evenodd" clip-rule="evenodd" d="M0 11.9928C0 5.33499 5.63096 0 12.5 0C19.369 0 25 5.33499 25 11.9928C25 18.6505 19.369 23.9855 12.5 23.9855C10.9014 23.9855 9.37237 23.6959 7.96513 23.1706L4.23051 24.9212C3.93644 25.0591 3.58909 25.0135 3.34051 24.8045C3.09194 24.5955 2.98743 24.2611 3.07275 23.9478L3.94928 20.7283C1.52948 18.548 0 15.4482 0 11.9928ZM14.194 14.3954L19.7003 9.80685L18.6333 8.52648L14.1396 12.2713L10.8455 9.80067L4.51579 14.3219L5.48452 15.6781L10.8215 11.866L14.194 14.3954Z" fill="#243757" fill-opacity="0.72"/>
</svg>
