<svg width="25" height="24" viewBox="0 0 25 24" fill="none" xmlns="http://www.w3.org/2000/svg">
<g clip-path="url(#clip0_2_190)">
<path fill-rule="evenodd" clip-rule="evenodd" d="M7.74742 3.3415C7.93731 3.12448 8.21164 3 8.5 3H21.5C22.2957 3 23.0587 3.31607 23.6213 3.87868C24.1839 4.44129 24.5 5.20435 24.5 6V18C24.5 18.7957 24.1839 19.5587 23.6213 20.1213C23.0587 20.6839 22.2957 21 21.5 21H8.5C8.21164 21 7.93731 20.8755 7.74742 20.6585L0.747423 12.6585C0.417526 12.2815 0.417526 11.7185 0.747423 11.3415L7.74742 3.3415ZM8.95377 5L2.82877 12L8.95377 19H21.5C21.7652 19 22.0196 18.8946 22.2071 18.7071C22.3946 18.5196 22.5 18.2652 22.5 18V6C22.5 5.73478 22.3946 5.48043 22.2071 5.29289C22.0196 5.10536 21.7652 5 21.5 5H8.95377Z" fill="#2B2B2B"/>
<path fill-rule="evenodd" clip-rule="evenodd" d="M19.2071 8.29289C19.5976 8.68342 19.5976 9.31658 19.2071 9.70711L13.2071 15.7071C12.8166 16.0976 12.1834 16.0976 11.7929 15.7071C11.4024 15.3166 11.4024 14.6834 11.7929 14.2929L17.7929 8.29289C18.1834 7.90237 18.8166 7.90237 19.2071 8.29289Z" fill="#2B2B2B"/>
<path fill-rule="evenodd" clip-rule="evenodd" d="M11.7929 8.29289C12.1834 7.90237 12.8166 7.90237 13.2071 8.29289L19.2071 14.2929C19.5976 14.6834 19.5976 15.3166 19.2071 15.7071C18.8166 16.0976 18.1834 16.0976 17.7929 15.7071L11.7929 9.70711C11.4024 9.31658 11.4024 8.68342 11.7929 8.29289Z" fill="#2B2B2B"/>
</g>
<defs>
<clipPath id="clip0_2_190">
<rect width="24" height="24" fill="white" transform="translate(0.5)"/>
</clipPath>
</defs>
</svg>
